<?xml version="1.0" standalone="no"?>
<!DOCTYPE svg PUBLIC "-//W3C//DTD SVG 20010904//EN"
 "http://www.w3.org/TR/2001/REC-SVG-20010904/DTD/svg10.dtd">
<svg version="1.0" xmlns="http://www.w3.org/2000/svg"
 width="500.000000pt" height="344.000000pt" viewBox="0 0 500.000000 344.000000"
 preserveAspectRatio="xMidYMid meet">
<metadata>
Created by potrace 1.16, written by Peter Selinger 2001-2019
</metadata>
<g transform="translate(0.000000,344.000000) scale(0.100000,-0.100000)"
fill="#000000" stroke="none">
<path d="M879 3296 c-221 -47 -401 -161 -541 -346 -58 -76 -130 -220 -153
-305 -50 -190 -18 -441 83 -640 83 -165 235 -344 366 -430 171 -111 369 -174
601 -190 l100 -7 1 -132 c0 -72 6 -165 13 -206 44 -245 191 -479 401 -640 198
-151 388 -213 645 -212 148 0 241 16 366 61 278 102 524 348 622 625 47 133
59 209 61 362 l1 142 95 6 c190 14 354 57 500 132 265 137 469 394 546 689 37
142 39 334 5 450 -75 257 -278 489 -510 585 -139 57 -190 65 -396 64 -177 0
-196 -2 -280 -28 -179 -54 -296 -125 -443 -270 -57 -55 -123 -128 -146 -161
-84 -119 -151 -271 -206 -465 l-27 -94 -49 4 c-63 6 -225 6 -289 0 -49 -4 -49
-4 -58 30 -23 92 -82 260 -117 335 -110 240 -320 459 -538 561 -146 68 -228
86 -417 90 -118 2 -190 -1 -236 -10z m1084 -1257 c22 -6 55 -26 75 -44 37 -33
37 -34 37 -117 0 -73 -4 -91 -32 -150 -59 -125 -127 -189 -240 -227 -171 -58
-263 6 -271 189 -3 68 0 96 17 140 35 94 113 169 211 203 53 19 149 21 203 6z
m1089 -18 c70 -34 133 -94 164 -158 40 -80 45 -204 12 -282 -33 -77 -62 -96
-152 -96 -63 0 -81 5 -148 37 -92 46 -138 94 -186 197 -30 62 -38 90 -40 152
-4 70 -2 77 23 107 48 57 94 73 205 68 52 -2 89 -10 122 -25z m-1447 -846
c543 -36 1014 -36 1570 0 44 3 90 8 102 10 22 5 23 4 16 -57 -19 -196 -114
-384 -265 -523 -122 -113 -245 -180 -407 -221 -133 -34 -329 -34 -462 0 -166
42 -287 109 -415 228 -150 141 -235 311 -259 521 -6 57 -6 58 17 53 13 -3 59
-8 103 -11z"/>
</g>
</svg>
